<svg width="48" height="48" viewBox="0 0 48 48" fill="none" xmlns="http://www.w3.org/2000/svg">
  <circle cx="24" cy="24" r="23" fill="#f7f5fb" stroke="#e0dced" stroke-width="1"/>
  <g transform="translate(24,24)">
    <path d="M0 -2.5 C 6 -3.5, 14 -8, 17.5 -16 C 19.5 -11, 19.5 -4, 15.5 1.5 C 10.5 0.5, 4 -0.5, 0 -2.5 Z" fill="#2a2630" transform="rotate(0)"/>
    <path d="M0 -2.5 C 6 -3.5, 14 -8, 17.5 -16 C 19.5 -11, 19.5 -4, 15.5 1.5 C 10.5 0.5, 4 -0.5, 0 -2.5 Z" fill="#ff5f4d" transform="rotate(72)"/>
    <path d="M0 -2.5 C 6 -3.5, 14 -8, 17.5 -16 C 19.5 -11, 19.5 -4, 15.5 1.5 C 10.5 0.5, 4 -0.5, 0 -2.5 Z" fill="#2a2630" fill-opacity="0.86" transform="rotate(144)"/>
    <path d="M0 -2.5 C 6 -3.5, 14 -8, 17.5 -16 C 19.5 -11, 19.5 -4, 15.5 1.5 C 10.5 0.5, 4 -0.5, 0 -2.5 Z" fill="#ff5f4d" fill-opacity="0.9" transform="rotate(216)"/>
    <path d="M0 -2.5 C 6 -3.5, 14 -8, 17.5 -16 C 19.5 -11, 19.5 -4, 15.5 1.5 C 10.5 0.5, 4 -0.5, 0 -2.5 Z" fill="#2a2630" fill-opacity="0.74" transform="rotate(288)"/>
    <circle r="4" fill="#f7f5fb"/>
  </g>
</svg>
